# xmcd
#
# Track frame offsets: 
#        183
#        20828
#        34960
#        50833
#        71595
#        83783
#        100700
#        131418
#        148100
#        165685
#
# Disc length: 2436 seconds
#
# Revision: 1
# Processed by: cddbd v1.5.2PL0 Copyright (c) Steve Scherf et al.
# Submitted via: ExactAudioCopy v0.99pb5
#
DISCID=8d09820a
DTITLE=Blue Blot - Shopping For Love
DYEAR=1991
DGENRE=Blues
TTITLE0=Shopping For Love
TTITLE1=I Need Someone
TTITLE2=No No No
TTITLE3=Tracking
TTITLE4=Calefunk
TTITLE5=Shuffle On
TTITLE6=Autocensor
TTITLE7=Who Is He (Remix)
TTITLE8=Take A Walk On The Moon (Remix)
TTITLE9=September (Remix)
EXTD=
EXTT0=
EXTT1=
EXTT2=
EXTT3=
EXTT4=
EXTT5=
EXTT6=
EXTT7=
EXTT8=
EXTT9=
PLAYORDER=
